<?xml version="1.0" standalone="no"?>
<!DOCTYPE svg PUBLIC "-//W3C//DTD SVG 20010904//EN"
 "http://www.w3.org/TR/2001/REC-SVG-20010904/DTD/svg10.dtd">
<svg version="1.0" xmlns="http://www.w3.org/2000/svg"
 width="421.000000pt" height="421.000000pt" viewBox="0 0 421.000000 421.000000"
 preserveAspectRatio="xMidYMid meet">
<metadata>
Created by potrace 1.14, written by Peter Selinger 2001-2017
</metadata>
<g transform="translate(0.000000,421.000000) scale(0.100000,-0.100000)"
fill="#000000" stroke="none">
<path d="M1755 3495 c-150 -33 -297 -117 -433 -249 -218 -210 -311 -445 -299
-761 3 -108 8 -137 26 -170 11 -22 21 -45 21 -52 0 -6 8 -18 18 -25 9 -7 34
-39 56 -70 21 -32 45 -58 52 -58 11 0 14 -19 14 -84 0 -125 9 -176 31 -176 25
0 30 12 18 51 -17 56 -19 70 -26 172 l-6 98 99 94 c63 61 107 95 121 95 13 0
58 12 100 26 85 29 150 28 220 -1 59 -25 82 -20 99 21 21 49 10 73 -44 96 -54
24 -187 35 -252 20 -48 -12 -61 -9 -42 10 7 7 12 18 12 25 0 24 80 140 122
178 54 49 161 99 283 131 112 29 155 50 155 75 0 44 82 20 101 -29 12 -32 81
-119 159 -201 60 -64 140 -160 140 -169 0 -5 -21 -15 -47 -21 -101 -26 -125
-53 -98 -116 17 -42 21 -42 143 -9 59 16 67 16 115 1 29 -9 63 -27 77 -40 26
-23 181 -117 190 -114 9 2 52 -38 85 -80 l32 -42 -18 -113 c-10 -62 -20 -122
-21 -133 -2 -14 3 -21 18 -23 19 -3 22 3 26 55 3 32 5 81 4 108 -1 40 3 52 19
60 25 13 84 113 89 151 2 16 13 45 25 66 75 125 92 406 35 577 -109 324 -468
599 -810 618 -91 6 -137 -6 -195 -48 -13 -10 -23 -7 -50 14 -70 53 -231 72
-364 42z"/>
<path d="M1596 2255 c-77 -30 -144 -100 -165 -173 -13 -43 3 -50 20 -9 15 38
61 93 103 125 38 28 57 29 27 1 -29 -27 -41 -60 -41 -112 0 -83 69 -148 148
-139 37 4 40 6 26 16 -15 11 -14 15 15 35 32 23 68 22 55 -1 -4 -7 3 -3 16 9
31 29 38 105 13 153 -10 19 -34 45 -53 58 -28 20 -30 23 -10 17 43 -12 90 -55
118 -106 32 -57 49 -65 27 -12 -21 49 -58 96 -97 125 -41 28 -143 35 -202 13z
m58 -90 c9 -25 -5 -45 -30 -45 -14 0 -27 7 -30 15 -10 25 4 45 30 45 13 0 26
-7 30 -15z"/>
<path d="M2445 2255 c-61 -33 -116 -105 -130 -170 -5 -22 2 -14 27 29 36 62
85 109 128 121 20 6 19 3 -10 -17 -79 -53 -92 -158 -29 -225 43 -44 64 -53
114 -43 22 4 34 8 28 9 -24 2 -13 26 22 49 30 19 36 20 41 8 3 -8 3 -20 -1
-26 -3 -5 -4 -10 0 -10 15 0 45 70 45 107 0 54 -13 88 -47 120 l-28 26 44 -24
c46 -25 85 -69 119 -132 25 -47 35 -36 17 17 -18 53 -63 105 -119 140 -58 37
-172 47 -221 21z m60 -105 c0 -18 -6 -26 -23 -28 -24 -4 -38 18 -28 44 3 9 15
14 28 12 17 -2 23 -10 23 -28z"/>
<path d="M1040 2135 c0 -8 19 -26 43 -42 26 -17 50 -45 64 -73 13 -26 22 -37
23 -27 0 29 -29 84 -62 116 -34 33 -68 46 -68 26z"/>
<path d="M3145 2138 c-40 -23 -78 -78 -93 -132 -13 -46 -8 -43 21 15 13 26 39
55 65 72 54 36 60 76 7 45z"/>
<path d="M933 406 c2 -29 9 -44 27 -58 24 -17 65 -18 983 -18 722 -1 957 -4
957 -12 0 -9 3 -9 12 0 8 8 59 12 164 12 138 0 154 2 178 21 14 11 26 29 26
40 0 20 0 20 -30 -1 l-29 -21 -1102 1 -1102 0 -38 22 c-21 12 -40 28 -43 37
-2 9 -4 -2 -3 -23z"/>
</g>
</svg>
